<?xml version="1.0" encoding="UTF-8" standalone="no"?>
<!-- Created with Inkscape (http://www.inkscape.org/) -->

<svg
   width="68.0px"
   height="68.0px"
   viewBox="0 0 68.0 68.0"
   version="1.1"
   id="SVGRoot"
   sodipodi:docname="Logo format mobile.svg"
   inkscape:version="1.2.2 (732a01da63, 2022-12-09)"
   xmlns:inkscape="http://www.inkscape.org/namespaces/inkscape"
   xmlns:sodipodi="http://sodipodi.sourceforge.net/DTD/sodipodi-0.dtd"
   xmlns="http://www.w3.org/2000/svg"
   xmlns:svg="http://www.w3.org/2000/svg">
  <sodipodi:namedview
     id="namedview2970"
     pagecolor="#ffffff"
     bordercolor="#000000"
     borderopacity="0.25"
     inkscape:showpageshadow="2"
     inkscape:pageopacity="0.0"
     inkscape:pagecheckerboard="0"
     inkscape:deskcolor="#d1d1d1"
     inkscape:document-units="px"
     showgrid="true"
     inkscape:zoom="1.5219183"
     inkscape:cx="241.14303"
     inkscape:cy="35.481536"
     inkscape:window-width="1920"
     inkscape:window-height="1009"
     inkscape:window-x="1912"
     inkscape:window-y="138"
     inkscape:window-maximized="1"
     inkscape:current-layer="layer1">
    <inkscape:grid
       type="xygrid"
       id="grid3456" />
  </sodipodi:namedview>
  <defs
     id="defs2965">
    <clipPath
       clipPathUnits="userSpaceOnUse"
       id="clipPath20">
      <path
         d="M 285.233,249.925 C 278.028,238.003 264.947,230.032 250,230.032 v 0 c -14.946,0 -28.029,7.971 -35.234,19.893 v 0 h -31.593 c -3.017,0 -5.862,-1.412 -7.609,-3.777 v 0 c -3.253,-4.401 -7.313,-8.06 -11.883,-10.862 v 0 l 12.618,-21.856 16.877,5.049 c 1.325,-1.428 2.702,-2.805 4.13,-4.13 v 0 l -5.049,-16.876 22.788,-13.157 12.074,12.791 c 1.858,-0.574 3.747,-1.078 5.663,-1.513 v 0 l 4.062,-17.119 h 26.312 l 4.062,17.119 c 1.916,0.435 3.805,0.939 5.664,1.513 v 0 l 12.073,-12.791 22.787,13.157 -5.048,16.876 c 1.428,1.325 2.806,2.702 4.13,4.13 v 0 l 16.876,-5.049 12.618,21.856 c -4.568,2.802 -8.63,6.461 -11.882,10.862 v 0 c -1.746,2.365 -4.591,3.777 -7.609,3.777 v 0 z"
         id="path18" />
    </clipPath>
    <radialGradient
       fx="0"
       fy="0"
       cx="0"
       cy="0"
       r="1"
       gradientUnits="userSpaceOnUse"
       gradientTransform="matrix(173.30534,0,0,-91.568665,249.31091,180.4352)"
       spreadMethod="pad"
       id="radialGradient40">
      <stop
         style="stop-opacity:1;stop-color:#f3f3f3"
         offset="0"
         id="stop26" />
      <stop
         style="stop-opacity:1;stop-color:#959595"
         offset="0.40554072"
         id="stop28" />
      <stop
         style="stop-opacity:1;stop-color:#959595"
         offset="0.411417"
         id="stop30" />
      <stop
         style="stop-opacity:1;stop-color:#959595"
         offset="0.42034468"
         id="stop32" />
      <stop
         style="stop-opacity:1;stop-color:#535353"
         offset="0.705301"
         id="stop34" />
      <stop
         style="stop-opacity:1;stop-color:#535353"
         offset="0.73943962"
         id="stop36" />
      <stop
         style="stop-opacity:1;stop-color:#f3f3f3"
         offset="1"
         id="stop38" />
    </radialGradient>
    <clipPath
       clipPathUnits="userSpaceOnUse"
       id="clipPath50">
      <path
         d="m 353.736,306.939 c -9.845,-1.222 -18.5,-6.542 -24.221,-14.159 v 0 c -2.999,-3.993 -7.604,-6.458 -12.597,-6.458 v 0 H 183.083 c -4.994,0 -9.6,2.465 -12.599,6.458 v 0 c -5.719,7.617 -14.375,12.937 -24.221,14.159 v 0 c -13.992,1.737 -26.653,-4.556 -34.005,-14.889 v 0 c -1.115,-1.568 0.013,-3.748 1.938,-3.748 v 0 h 28.581 c 2.002,0 3.853,-1.068 4.854,-2.802 v 0 l 6.653,-11.525 c 1.002,-1.733 1.002,-3.87 0,-5.604 v 0 l -6.653,-11.525 c -1.001,-1.734 -2.852,-2.802 -4.855,-2.802 v 0 h -28.575 c -1.916,0 -3.064,-2.169 -1.956,-3.731 v 0 c 6.533,-9.193 17.269,-15.193 29.406,-15.193 v 0 c 11.896,0 22.442,5.765 29.007,14.651 v 0 c 2.926,3.961 7.591,6.254 12.515,6.254 v 0 h 133.653 c 4.924,0 9.59,-2.293 12.515,-6.254 v 0 c 6.565,-8.886 17.112,-14.651 29.007,-14.651 v 0 c 12.138,0 22.874,6 29.406,15.193 v 0 c 1.11,1.562 -0.039,3.731 -1.956,3.731 v 0 h -28.575 c -2.002,0 -3.853,1.068 -4.854,2.802 v 0 l -6.653,11.525 c -1.002,1.734 -1.002,3.871 0,5.604 v 0 l 6.653,11.525 c 1.001,1.734 2.852,2.802 4.854,2.802 v 0 h 28.582 c 1.923,0 3.053,2.18 1.937,3.748 v 0 c -6.534,9.183 -17.263,15.175 -29.392,15.176 v 0 c -1.518,0 -3.057,-0.094 -4.614,-0.287"
         id="path48" />
    </clipPath>
    <linearGradient
       x1="0"
       y1="0"
       x2="1"
       y2="0"
       gradientUnits="userSpaceOnUse"
       gradientTransform="matrix(0,72.105377,72.105377,0,250,235.12045)"
       spreadMethod="pad"
       id="linearGradient72">
      <stop
         style="stop-opacity:1;stop-color:#f3f3f3"
         offset="0"
         id="stop56" />
      <stop
         style="stop-opacity:1;stop-color:#959595"
         offset="0.27213575"
         id="stop58" />
      <stop
         style="stop-opacity:1;stop-color:#959595"
         offset="0.276079"
         id="stop60" />
      <stop
         style="stop-opacity:1;stop-color:#959595"
         offset="0.38991398"
         id="stop62" />
      <stop
         style="stop-opacity:1;stop-color:#535353"
         offset="0.506116"
         id="stop64" />
      <stop
         style="stop-opacity:1;stop-color:#777777"
         offset="0.55672085"
         id="stop66" />
      <stop
         style="stop-opacity:1;stop-color:#777777"
         offset="0.757991"
         id="stop68" />
      <stop
         style="stop-opacity:1;stop-color:#f3f3f3"
         offset="1"
         id="stop70" />
    </linearGradient>
    <clipPath
       clipPathUnits="userSpaceOnUse"
       id="clipPath82">
      <path
         d="M 0,500 H 500 V 0 H 0 Z"
         id="path80" />
    </clipPath>
    <clipPath
       clipPathUnits="userSpaceOnUse"
       id="clipPath90">
      <path
         d="M 161.131,385.616 H 338.869 V 334.669 H 161.131 Z"
         id="path88" />
    </clipPath>
    <clipPath
       clipPathUnits="userSpaceOnUse"
       id="clipPath94">
      <path
         d="M 338.869,334.669 H 161.131 l 18.453,36.49 c 1.579,3.12 4.352,5.369 7.627,6.193 8.196,2.063 26.862,8.264 62.789,8.264 35.928,0 54.593,-6.201 62.789,-8.264 3.275,-0.824 6.048,-3.073 7.626,-6.193 z"
         id="path92" />
    </clipPath>
    <linearGradient
       x1="0"
       y1="0"
       x2="1"
       y2="0"
       gradientUnits="userSpaceOnUse"
       gradientTransform="matrix(0,50.94651,50.94651,0,250,334.66907)"
       spreadMethod="pad"
       id="linearGradient102">
      <stop
         style="stop-opacity:1;stop-color:#000000"
         offset="0"
         id="stop96" />
      <stop
         style="stop-opacity:1;stop-color:#000000"
         offset="0.5916017"
         id="stop98" />
      <stop
         style="stop-opacity:1;stop-color:#828282"
         offset="1"
         id="stop100" />
    </linearGradient>
    <clipPath
       clipPathUnits="userSpaceOnUse"
       id="clipPath124">
      <path
         d="m 354.569,346.603 c 0.774,-8.354 -1.895,-11.934 -13.018,-14.29 v 0 c -7.307,-0.821 -37.695,-3.852 -91.551,-4.236 v 0 c -53.856,0.384 -84.243,3.415 -91.551,4.236 v 0 c -11.123,2.356 -13.793,5.936 -13.018,14.29 v 0 c 0.677,7.29 -10.659,8.873 -16.366,8.873 v 0 c -8.441,0 -15.703,-10.337 -14.126,-12.231 v 0 c 3.466,-4.165 20.328,-7.408 26.357,-5.169 v 0 c 2.828,1.05 2.502,-5.541 2.24,-6.547 v 0 c -0.165,-0.631 -7.86,-5.339 -7.86,-18.65 v 0 c 1.966,0.283 3.961,0.446 5.975,0.446 v 0 c 1.777,0 3.58,-0.112 5.363,-0.334 v 0 c 11.157,-1.385 21.49,-7.417 28.347,-16.55 v 0 c 1.919,-2.555 4.733,-4.02 7.722,-4.02 v 0 H 250 316.917 c 2.988,0 5.802,1.465 7.722,4.02 v 0 c 6.857,9.133 17.19,15.165 28.347,16.55 v 0 c 1.782,0.222 3.586,0.334 5.362,0.334 v 0 c 2.016,0 4.009,-0.163 5.976,-0.446 v 0 c 0,13.311 -7.695,18.019 -7.86,18.65 v 0 c -0.263,1.006 -0.588,7.597 2.239,6.547 v 0 c 6.029,-2.239 22.892,1.004 26.357,5.169 v 0 c 1.577,1.894 -5.684,12.231 -14.125,12.231 v 0 c -5.707,0 -17.042,-1.583 -16.366,-8.873 m -30.472,-27.15 c 10.474,2.66 -1.626,-9.961 -74.097,-10.368 v 0 c -72.471,0.407 -84.571,13.028 -74.097,10.368 v 0 C 195.723,314.42 250,314.879 250,314.879 v 0 c 0,0 1.293,-0.011 3.549,-0.011 v 0 c 12.376,0 53.785,0.329 70.548,4.585 m -13.064,-8.842 c 8.628,2.659 -1.339,-9.961 -61.033,-10.368 v 0 c -59.694,0.407 -69.661,13.027 -61.033,10.368 v 0 C 205.293,305.578 250,306.037 250,306.037 v 0 c 0,0 1.065,-0.011 2.924,-0.011 v 0 c 10.193,0 44.301,0.328 58.109,4.585"
         id="path122" />
    </clipPath>
    <linearGradient
       x1="0"
       y1="0"
       x2="1"
       y2="0"
       gradientUnits="userSpaceOnUse"
       gradientTransform="matrix(0,59.093647,59.093647,0,250,292.42075)"
       spreadMethod="pad"
       id="linearGradient136">
      <stop
         style="stop-opacity:1;stop-color:#ba1800"
         offset="0"
         id="stop130" />
      <stop
         style="stop-opacity:1;stop-color:#ff2500"
         offset="0.77172999"
         id="stop132" />
      <stop
         style="stop-opacity:1;stop-color:#ff2500"
         offset="1"
         id="stop134" />
    </linearGradient>
    <clipPath
       clipPathUnits="userSpaceOnUse"
       id="clipPath146">
      <path
         d="m 166.755,376.474 c -5.439,-7.083 -11.443,-19.952 -15.467,-29.095 v 0 c 0.89,-4.347 4.238,-6.014 6.743,-8.007 v 0 c 2.311,7.334 5.447,21.757 13.586,34.537 v 0 c 10.415,16.354 62.127,18.025 78.383,18.088 v 0 c 16.256,-0.063 67.968,-1.734 78.384,-18.088 v 0 c 8.139,-12.78 11.274,-27.203 13.585,-34.537 v 0 c 2.504,1.993 5.852,3.66 6.743,8.007 v 0 c -4.025,9.143 -10.028,22.012 -15.467,29.095 v 0 c -7.077,9.217 -19.82,17.483 -83.245,17.483 v 0 c -63.425,0 -76.168,-8.266 -83.245,-17.483"
         id="path144" />
    </clipPath>
    <linearGradient
       x1="0"
       y1="0"
       x2="1"
       y2="0"
       gradientUnits="userSpaceOnUse"
       gradientTransform="matrix(0,60.55975,60.55975,0,250,332.41751)"
       spreadMethod="pad"
       id="linearGradient158">
      <stop
         style="stop-opacity:1;stop-color:#ba1800"
         offset="0"
         id="stop152" />
      <stop
         style="stop-opacity:1;stop-color:#ff2500"
         offset="0.77172999"
         id="stop154" />
      <stop
         style="stop-opacity:1;stop-color:#ff2500"
         offset="1"
         id="stop156" />
    </linearGradient>
  </defs>
  <g
     inkscape:label="Calque 1"
     inkscape:groupmode="layer"
     id="layer1">
    <path
       d="M -167.06538,245.19012 H 235.41553 V -120.48983 H -167.06538 Z"
       style="fill:none;fill-opacity:1;fill-rule:nonzero;stroke:none;stroke-width:0.767277"
       id="path12" />
    <g
       id="g14"
       transform="matrix(0.2354112,0,0,-0.24251914,-24.677722,105.27607)">
      <g
         id="g16"
         clip-path="url(#clipPath20)">
        <g
           id="g22">
          <g
             id="g24">
            <path
               d="M 285.233,249.925 C 278.028,238.003 264.947,230.032 250,230.032 v 0 c -14.946,0 -28.029,7.971 -35.234,19.893 v 0 h -31.593 c -3.017,0 -5.862,-1.412 -7.609,-3.777 v 0 c -3.253,-4.401 -7.313,-8.06 -11.883,-10.862 v 0 l 12.618,-21.856 16.877,5.049 c 1.325,-1.428 2.702,-2.805 4.13,-4.13 v 0 l -5.049,-16.876 22.788,-13.157 12.074,12.791 c 1.858,-0.574 3.747,-1.078 5.663,-1.513 v 0 l 4.062,-17.119 h 26.312 l 4.062,17.119 c 1.916,0.435 3.805,0.939 5.664,1.513 v 0 l 12.073,-12.791 22.787,13.157 -5.048,16.876 c 1.428,1.325 2.806,2.702 4.13,4.13 v 0 l 16.876,-5.049 12.618,21.856 c -4.568,2.802 -8.63,6.461 -11.882,10.862 v 0 c -1.746,2.365 -4.591,3.777 -7.609,3.777 v 0 z"
               style="fill:url(#radialGradient40);stroke:none"
               id="path42" />
          </g>
        </g>
      </g>
    </g>
    <g
       id="g44"
       transform="matrix(0.2354112,0,0,-0.24251914,-24.677722,105.27607)">
      <g
         id="g46"
         clip-path="url(#clipPath50)">
        <g
           id="g52">
          <g
             id="g54">
            <path
               d="m 353.736,306.939 c -9.845,-1.222 -18.5,-6.542 -24.221,-14.159 v 0 c -2.999,-3.993 -7.604,-6.458 -12.597,-6.458 v 0 H 183.083 c -4.994,0 -9.6,2.465 -12.599,6.458 v 0 c -5.719,7.617 -14.375,12.937 -24.221,14.159 v 0 c -13.992,1.737 -26.653,-4.556 -34.005,-14.889 v 0 c -1.115,-1.568 0.013,-3.748 1.938,-3.748 v 0 h 28.581 c 2.002,0 3.853,-1.068 4.854,-2.802 v 0 l 6.653,-11.525 c 1.002,-1.733 1.002,-3.87 0,-5.604 v 0 l -6.653,-11.525 c -1.001,-1.734 -2.852,-2.802 -4.855,-2.802 v 0 h -28.575 c -1.916,0 -3.064,-2.169 -1.956,-3.731 v 0 c 6.533,-9.193 17.269,-15.193 29.406,-15.193 v 0 c 11.896,0 22.442,5.765 29.007,14.651 v 0 c 2.926,3.961 7.591,6.254 12.515,6.254 v 0 h 133.653 c 4.924,0 9.59,-2.293 12.515,-6.254 v 0 c 6.565,-8.886 17.112,-14.651 29.007,-14.651 v 0 c 12.138,0 22.874,6 29.406,15.193 v 0 c 1.11,1.562 -0.039,3.731 -1.956,3.731 v 0 h -28.575 c -2.002,0 -3.853,1.068 -4.854,2.802 v 0 l -6.653,11.525 c -1.002,1.734 -1.002,3.871 0,5.604 v 0 l 6.653,11.525 c 1.001,1.734 2.852,2.802 4.854,2.802 v 0 h 28.582 c 1.923,0 3.053,2.18 1.937,3.748 v 0 c -6.534,9.183 -17.263,15.175 -29.392,15.176 v 0 c -1.518,0 -3.057,-0.094 -4.614,-0.287"
               style="fill:url(#linearGradient72);stroke:none"
               id="path74" />
          </g>
        </g>
      </g>
    </g>
    <g
       id="g76"
       transform="matrix(0.2354112,0,0,-0.24251914,-24.677722,105.27607)">
      <g
         id="g78"
         clip-path="url(#clipPath82)">
        <g
           id="g84">
          <g
             id="g86" />
          <g
             id="g116">
            <g
               clip-path="url(#clipPath90)"
               id="g114">
              <g
                 id="g112">
                <g
                   clip-path="url(#clipPath94)"
                   id="g110">
                  <g
                     id="g108">
                    <g
                       id="g106">
                      <path
                         d="M 338.869,334.669 H 161.131 l 18.453,36.49 c 1.579,3.12 4.352,5.369 7.627,6.193 8.196,2.063 26.862,8.264 62.789,8.264 35.928,0 54.593,-6.201 62.789,-8.264 3.275,-0.824 6.048,-3.073 7.626,-6.193 z"
                         style="fill:url(#linearGradient102);stroke:none"
                         id="path104" />
                    </g>
                  </g>
                </g>
              </g>
            </g>
          </g>
        </g>
      </g>
    </g>
    <g
       id="g118"
       transform="matrix(0.2354112,0,0,-0.24251914,-24.677722,105.27607)">
      <g
         id="g120"
         clip-path="url(#clipPath124)">
        <g
           id="g126">
          <g
             id="g128">
            <path
               d="m 354.569,346.603 c 0.774,-8.354 -1.895,-11.934 -13.018,-14.29 v 0 c -7.307,-0.821 -37.695,-3.852 -91.551,-4.236 v 0 c -53.856,0.384 -84.243,3.415 -91.551,4.236 v 0 c -11.123,2.356 -13.793,5.936 -13.018,14.29 v 0 c 0.677,7.29 -10.659,8.873 -16.366,8.873 v 0 c -8.441,0 -15.703,-10.337 -14.126,-12.231 v 0 c 3.466,-4.165 20.328,-7.408 26.357,-5.169 v 0 c 2.828,1.05 2.502,-5.541 2.24,-6.547 v 0 c -0.165,-0.631 -7.86,-5.339 -7.86,-18.65 v 0 c 1.966,0.283 3.961,0.446 5.975,0.446 v 0 c 1.777,0 3.58,-0.112 5.363,-0.334 v 0 c 11.157,-1.385 21.49,-7.417 28.347,-16.55 v 0 c 1.919,-2.555 4.733,-4.02 7.722,-4.02 v 0 H 250 316.917 c 2.988,0 5.802,1.465 7.722,4.02 v 0 c 6.857,9.133 17.19,15.165 28.347,16.55 v 0 c 1.782,0.222 3.586,0.334 5.362,0.334 v 0 c 2.016,0 4.009,-0.163 5.976,-0.446 v 0 c 0,13.311 -7.695,18.019 -7.86,18.65 v 0 c -0.263,1.006 -0.588,7.597 2.239,6.547 v 0 c 6.029,-2.239 22.892,1.004 26.357,5.169 v 0 c 1.577,1.894 -5.684,12.231 -14.125,12.231 v 0 c -5.707,0 -17.042,-1.583 -16.366,-8.873 m -30.472,-27.15 c 10.474,2.66 -1.626,-9.961 -74.097,-10.368 v 0 c -72.471,0.407 -84.571,13.028 -74.097,10.368 v 0 C 195.723,314.42 250,314.879 250,314.879 v 0 c 0,0 1.293,-0.011 3.549,-0.011 v 0 c 12.376,0 53.785,0.329 70.548,4.585 m -13.064,-8.842 c 8.628,2.659 -1.339,-9.961 -61.033,-10.368 v 0 c -59.694,0.407 -69.661,13.027 -61.033,10.368 v 0 C 205.293,305.578 250,306.037 250,306.037 v 0 c 0,0 1.065,-0.011 2.924,-0.011 v 0 c 10.193,0 44.301,0.328 58.109,4.585"
               style="fill:url(#linearGradient136);stroke:none"
               id="path138" />
          </g>
        </g>
      </g>
    </g>
    <g
       id="g140"
       transform="matrix(0.2354112,0,0,-0.24251914,-24.677722,105.27607)">
      <g
         id="g142"
         clip-path="url(#clipPath146)">
        <g
           id="g148">
          <g
             id="g150">
            <path
               d="m 166.755,376.474 c -5.439,-7.083 -11.443,-19.952 -15.467,-29.095 v 0 c 0.89,-4.347 4.238,-6.014 6.743,-8.007 v 0 c 2.311,7.334 5.447,21.757 13.586,34.537 v 0 c 10.415,16.354 62.127,18.025 78.383,18.088 v 0 c 16.256,-0.063 67.968,-1.734 78.384,-18.088 v 0 c 8.139,-12.78 11.274,-27.203 13.585,-34.537 v 0 c 2.504,1.993 5.852,3.66 6.743,8.007 v 0 c -4.025,9.143 -10.028,22.012 -15.467,29.095 v 0 c -7.077,9.217 -19.82,17.483 -83.245,17.483 v 0 c -63.425,0 -76.168,-8.266 -83.245,-17.483"
               style="fill:url(#linearGradient158);stroke:none"
               id="path160" />
          </g>
        </g>
      </g>
    </g>
  </g>
</svg>
